<svg viewBox="0 0 744 589" fill="none" xmlns="http://www.w3.org/2000/svg">
<path d="M372.018 86.4158C286.256 -55.5323 164.176 8.83594 113.856 58.7636C46.0339 127.894 -21.7883 284.59 6.65328 332.981C35.0948 381.373 94.1658 303.025 161.988 392.894C317.323 667.112 372.018 579.547 566.733 561.112C761.448 542.677 595.175 418.242 711.129 346.807C827.083 275.373 601.738 220.068 566.733 229.286C531.728 238.503 479.221 263.851 372.018 86.4158Z" fill="#E1D8D3"/>
<path d="M373.082 122.002C294.682 -1.19775 183.082 54.6689 137.082 98.0023C75.0821 158.002 13.0821 294.002 39.0821 336.002C65.0821 378.002 119.082 310.002 181.082 388.002C323.082 626.002 373.082 550.002 551.082 534.002C729.082 518.002 577.082 410.002 683.082 348.002C789.082 286.002 583.082 238.002 551.082 246.002C519.082 254.002 471.082 276.002 373.082 122.002Z" fill="#BEC894"/>
</svg>
